<svg width="446" height="64" viewBox="0 0 446 64" fill="none" xmlns="http://www.w3.org/2000/svg">
<path d="M55.3828 18.1973C61.2786 26.8298 61.5763 42.616 49.7943 52.708C37.513 63.2321 19.6143 60.9948 10.0984 48.2909C0.572935 35.5775 3.90493 17.5732 17.3673 8.95033C29.6967 1.04764 44.8107 5.14782 51.4171 13.0793C49.2854 14.7405 47.1152 16.3441 45.0411 18.0725C39.8271 22.4127 35.3044 27.4251 31.0314 32.6776C30.0808 33.8491 30.1096 33.8971 28.7365 33.2153C26.115 31.919 23.5224 30.5747 20.8914 29.3168C19.5471 28.6734 18.1451 28.6158 16.9256 29.6145C15.5045 30.7763 15.3029 32.9753 16.5704 34.358C20.5841 38.7366 24.4634 43.2593 29.2166 46.8986C30.7433 48.0701 32.3949 48.7134 34.325 48.0989C35.7173 47.6572 36.6007 46.6105 37.2921 45.391C39.1357 42.1455 40.9122 38.8711 42.7846 35.6447C46.1742 29.7969 49.8711 24.1508 54.3746 19.0807C54.6338 18.7927 54.9123 18.5238 55.1908 18.2549C55.2292 18.2069 55.3156 18.2165 55.3828 18.1973Z" fill="#42AF3C"/>
<path d="M55.4595 10.5252C54.3841 11.543 54.3841 11.5334 53.3951 10.5444C49.0644 6.23295 43.9272 3.45789 37.9066 2.30562C30.5896 0.903681 23.6664 1.98874 17.1656 5.56079C12.4413 8.15341 8.754 11.8599 5.95973 16.469C3.7128 20.1659 2.36848 24.17 1.90757 28.4431C0.985745 36.9411 3.11745 44.6325 8.56195 51.2677C12.7678 56.3857 18.1258 59.8426 24.5882 61.4269C28.1122 62.2911 31.6939 62.4544 35.3427 62.0895C39.1068 61.715 42.6693 60.7068 45.9821 58.9591C51.3306 56.1553 55.5268 52.0935 58.5035 46.8026C61.4898 41.4926 62.6037 35.7696 62.2292 29.7586C61.9411 25.1495 60.616 20.79 58.2538 16.7859C57.5721 15.6336 57.6009 15.5088 58.7339 14.7022C66.8383 26.1961 66.3485 45.4007 51.8971 57.0003C37.897 68.2349 17.3865 65.748 6.30541 50.9988C-4.44915 36.701 -1.12676 16.0849 13.8336 5.72403C28.4579 -4.38718 46.539 -0.0469448 55.4595 10.5252Z" fill="#42AF3C"/>
<path d="M57.2451 12.7043C57.053 12.9635 56.8802 13.2516 56.6497 13.482C50.8788 19.0418 46.2312 25.4561 42.1983 32.3313C39.9417 36.1819 37.7812 40.09 35.5439 43.9501C34.0363 46.5427 32.3847 46.898 30.2146 44.8431C26.6138 41.4343 23.1665 37.8815 19.6617 34.3862C19.2104 33.9445 18.7591 33.4932 18.3558 33.0131C17.9429 32.5138 17.8085 31.9568 18.3078 31.3999C18.7687 30.8814 19.2584 30.9678 19.8249 31.2559C22.9361 32.8211 26.0568 34.3478 29.168 35.913C30.6659 36.662 30.6563 36.6716 31.7318 35.3369C36.4177 29.4891 41.3629 23.8525 47.2299 19.157C50.1298 16.8332 53.3081 14.8744 56.3713 12.7523C56.5633 12.6178 56.8034 12.5698 57.0242 12.4834C57.101 12.5506 57.1779 12.6274 57.2451 12.7043Z" fill="#42AF3C"/>
<path d="M73.409 44.001V20.901H83.111C84.585 20.901 85.927 21.242 87.137 21.924C88.369 22.584 89.348 23.519 90.074 24.729C90.8 25.917 91.163 27.303 91.163 28.887C91.163 30.449 90.8 31.835 90.074 33.045C89.37 34.255 88.402 35.201 87.17 35.883C85.96 36.543 84.596 36.873 83.078 36.873H77.336V44.001H73.409ZM77.336 33.408H82.616C83.474 33.408 84.244 33.232 84.926 32.88C85.63 32.528 86.18 32.011 86.576 31.329C86.994 30.647 87.203 29.844 87.203 28.92C87.203 27.952 86.994 27.138 86.576 26.478C86.18 25.796 85.63 25.279 84.926 24.927C84.244 24.553 83.485 24.366 82.649 24.366H77.336V33.408ZM94.4821 44.001V19.911H98.2771V28.854C98.9591 28.128 99.7511 27.6 100.653 27.27C101.555 26.94 102.468 26.775 103.392 26.775C104.932 26.775 106.241 27.105 107.319 27.765C108.419 28.403 109.255 29.294 109.827 30.438C110.399 31.56 110.685 32.847 110.685 34.299V44.001H106.923V34.332C106.923 33.474 106.714 32.726 106.296 32.088C105.9 31.428 105.372 30.922 104.712 30.57C104.074 30.196 103.359 30.009 102.567 30.009C101.819 30.009 101.115 30.185 100.455 30.537C99.7951 30.889 99.2671 31.384 98.8711 32.022C98.4751 32.66 98.2771 33.386 98.2771 34.2V44.001H94.4821ZM121.44 50.7V44.232C120.164 43.99 119.064 43.539 118.14 42.879C117.216 42.197 116.501 41.339 115.995 40.305C115.489 39.271 115.236 38.127 115.236 36.873V27.171H119.031V36.84C119.031 37.698 119.218 38.457 119.592 39.117C119.988 39.755 120.505 40.261 121.143 40.635C121.803 40.987 122.518 41.163 123.288 41.163C124.058 41.163 124.762 40.987 125.4 40.635C126.06 40.261 126.577 39.755 126.951 39.117C127.347 38.457 127.545 37.698 127.545 36.84V27.171H131.34V36.873C131.34 38.127 131.087 39.26 130.581 40.272C130.075 41.284 129.36 42.142 128.436 42.846C127.534 43.528 126.456 43.979 125.202 44.199V50.7H121.44ZM135.827 44.001V40.767H143.945C144.341 40.767 144.682 40.679 144.968 40.503C145.276 40.327 145.507 40.096 145.661 39.81C145.837 39.524 145.925 39.227 145.925 38.919C145.925 38.567 145.848 38.259 145.694 37.995C145.54 37.731 145.32 37.522 145.034 37.368C144.748 37.192 144.418 37.104 144.044 37.104H140.744C139.666 37.104 138.709 36.928 137.873 36.576C137.037 36.224 136.377 35.685 135.893 34.959C135.409 34.211 135.167 33.276 135.167 32.154C135.167 31.252 135.387 30.427 135.827 29.679C136.289 28.931 136.905 28.326 137.675 27.864C138.445 27.402 139.314 27.171 140.282 27.171H148.103V30.405H140.645C140.139 30.405 139.721 30.57 139.391 30.9C139.061 31.208 138.896 31.593 138.896 32.055C138.896 32.495 139.061 32.88 139.391 33.21C139.721 33.54 140.161 33.705 140.711 33.705H143.912C145.122 33.705 146.156 33.892 147.014 34.266C147.872 34.64 148.521 35.201 148.961 35.949C149.423 36.697 149.654 37.643 149.654 38.787C149.654 39.711 149.423 40.58 148.961 41.394C148.499 42.186 147.861 42.824 147.047 43.308C146.255 43.77 145.353 44.001 144.341 44.001H135.827ZM153.424 44.001V27.171H157.219V44.001H153.424ZM155.305 24.828C154.645 24.828 154.073 24.586 153.589 24.102C153.105 23.618 152.863 23.046 152.863 22.386C152.863 21.726 153.105 21.154 153.589 20.67C154.073 20.186 154.645 19.944 155.305 19.944C155.987 19.944 156.559 20.186 157.021 20.67C157.505 21.154 157.747 21.726 157.747 22.386C157.747 23.046 157.505 23.618 157.021 24.102C156.559 24.586 155.987 24.828 155.305 24.828ZM169.889 44.001C168.151 44.001 166.6 43.627 165.236 42.879C163.872 42.131 162.794 41.13 162.002 39.876C161.21 38.6 160.814 37.17 160.814 35.586C160.814 34.002 161.21 32.583 162.002 31.329C162.794 30.053 163.872 29.041 165.236 28.293C166.6 27.545 168.151 27.171 169.889 27.171H171.935V30.405H169.823C168.811 30.405 167.909 30.636 167.117 31.098C166.347 31.538 165.742 32.154 165.302 32.946C164.862 33.738 164.642 34.618 164.642 35.586C164.642 36.554 164.862 37.434 165.302 38.226C165.742 39.018 166.347 39.645 167.117 40.107C167.909 40.547 168.811 40.767 169.823 40.767H171.935V44.001H169.889ZM182.073 44.397C180.467 44.397 179.081 44.001 177.915 43.209C176.749 42.417 175.847 41.361 175.209 40.041C174.593 38.699 174.285 37.225 174.285 35.619C174.285 33.947 174.637 32.451 175.341 31.131C176.067 29.789 177.09 28.733 178.41 27.963C179.752 27.171 181.347 26.775 183.195 26.775C185.021 26.775 186.572 27.171 187.848 27.963C189.146 28.733 190.136 29.789 190.818 31.131C191.522 32.451 191.874 33.925 191.874 35.553V44.001H188.079V40.866H188.013C187.683 41.482 187.254 42.065 186.726 42.615C186.198 43.143 185.549 43.572 184.779 43.902C184.009 44.232 183.107 44.397 182.073 44.397ZM183.096 41.163C184.086 41.163 184.944 40.921 185.67 40.437C186.418 39.931 187.001 39.26 187.419 38.424C187.837 37.566 188.035 36.609 188.013 35.553C188.013 34.497 187.815 33.562 187.419 32.748C187.023 31.912 186.462 31.252 185.736 30.768C185.01 30.262 184.141 30.009 183.129 30.009C182.073 30.009 181.171 30.262 180.423 30.768C179.675 31.252 179.103 31.912 178.707 32.748C178.311 33.584 178.113 34.53 178.113 35.586C178.113 36.62 178.311 37.566 178.707 38.424C179.103 39.26 179.664 39.931 180.39 40.437C181.138 40.921 182.04 41.163 183.096 41.163ZM196.415 44.001V19.911H200.21V44.001H196.415ZM213.561 44.001V40.536H223.494C224.132 40.536 224.682 40.382 225.144 40.074C225.628 39.766 226.002 39.37 226.266 38.886C226.552 38.38 226.695 37.852 226.695 37.302C226.695 36.708 226.563 36.169 226.299 35.685C226.035 35.201 225.661 34.816 225.177 34.53C224.715 34.244 224.176 34.101 223.56 34.101H219.435C218.137 34.101 216.971 33.837 215.937 33.309C214.925 32.759 214.122 32 213.528 31.032C212.934 30.064 212.637 28.92 212.637 27.6C212.637 26.28 212.923 25.125 213.495 24.135C214.067 23.123 214.848 22.331 215.838 21.759C216.828 21.187 217.95 20.901 219.204 20.901H229.137V24.366H219.567C218.995 24.366 218.478 24.509 218.016 24.795C217.554 25.081 217.191 25.455 216.927 25.917C216.685 26.379 216.564 26.874 216.564 27.402C216.564 27.952 216.685 28.458 216.927 28.92C217.191 29.36 217.543 29.723 217.983 30.009C218.445 30.273 218.962 30.405 219.534 30.405H223.758C225.166 30.405 226.376 30.68 227.388 31.23C228.422 31.78 229.214 32.539 229.764 33.507C230.336 34.475 230.622 35.586 230.622 36.84C230.622 38.314 230.325 39.59 229.731 40.668C229.159 41.724 228.367 42.549 227.355 43.143C226.365 43.715 225.243 44.001 223.989 44.001H213.561ZM234.184 44.001V19.911H237.979V28.854C238.661 28.128 239.453 27.6 240.355 27.27C241.257 26.94 242.17 26.775 243.094 26.775C244.634 26.775 245.943 27.105 247.021 27.765C248.121 28.403 248.957 29.294 249.529 30.438C250.101 31.56 250.387 32.847 250.387 34.299V44.001H246.625V34.332C246.625 33.474 246.416 32.726 245.998 32.088C245.602 31.428 245.074 30.922 244.414 30.57C243.776 30.196 243.061 30.009 242.269 30.009C241.521 30.009 240.817 30.185 240.157 30.537C239.497 30.889 238.969 31.384 238.573 32.022C238.177 32.66 237.979 33.386 237.979 34.2V44.001H234.184ZM261.769 44.397C260.163 44.397 258.777 44.001 257.611 43.209C256.445 42.417 255.543 41.361 254.905 40.041C254.289 38.699 253.981 37.225 253.981 35.619C253.981 33.947 254.333 32.451 255.037 31.131C255.763 29.789 256.786 28.733 258.106 27.963C259.448 27.171 261.043 26.775 262.891 26.775C264.717 26.775 266.268 27.171 267.544 27.963C268.842 28.733 269.832 29.789 270.514 31.131C271.218 32.451 271.57 33.925 271.57 35.553V44.001H267.775V40.866H267.709C267.379 41.482 266.95 42.065 266.422 42.615C265.894 43.143 265.245 43.572 264.475 43.902C263.705 44.232 262.803 44.397 261.769 44.397ZM262.792 41.163C263.782 41.163 264.64 40.921 265.366 40.437C266.114 39.931 266.697 39.26 267.115 38.424C267.533 37.566 267.731 36.609 267.709 35.553C267.709 34.497 267.511 33.562 267.115 32.748C266.719 31.912 266.158 31.252 265.432 30.768C264.706 30.262 263.837 30.009 262.825 30.009C261.769 30.009 260.867 30.262 260.119 30.768C259.371 31.252 258.799 31.912 258.403 32.748C258.007 33.584 257.809 34.53 257.809 35.586C257.809 36.62 258.007 37.566 258.403 38.424C258.799 39.26 259.36 39.931 260.086 40.437C260.834 40.921 261.736 41.163 262.792 41.163ZM275.979 44.001V31.956C275.979 30.46 276.397 29.294 277.233 28.458C278.091 27.6 279.268 27.171 280.764 27.171H284.823V30.405H281.457C280.929 30.405 280.511 30.559 280.203 30.867C279.917 31.175 279.774 31.593 279.774 32.121V44.001H275.979ZM295.969 44.001C294.077 44.001 292.416 43.649 290.986 42.945C289.578 42.219 288.478 41.229 287.686 39.975C286.894 38.699 286.498 37.236 286.498 35.586C286.498 33.848 286.85 32.319 287.554 30.999C288.258 29.679 289.226 28.645 290.458 27.897C291.69 27.149 293.109 26.775 294.715 26.775C296.519 26.775 298.004 27.16 299.17 27.93C300.336 28.7 301.194 29.734 301.744 31.032C302.316 32.33 302.602 33.782 302.602 35.388C302.602 35.608 302.591 35.861 302.569 36.147C302.547 36.433 302.514 36.653 302.47 36.807H290.524C290.656 37.687 290.975 38.424 291.481 39.018C291.987 39.59 292.625 40.03 293.395 40.338C294.165 40.624 295.023 40.767 295.969 40.767H300.49V44.001H295.969ZM290.491 34.233H298.807C298.785 33.815 298.719 33.397 298.609 32.979C298.521 32.561 298.367 32.165 298.147 31.791C297.949 31.417 297.685 31.098 297.355 30.834C297.047 30.548 296.673 30.328 296.233 30.174C295.793 29.998 295.287 29.91 294.715 29.91C294.055 29.91 293.472 30.042 292.966 30.306C292.46 30.548 292.031 30.878 291.679 31.296C291.327 31.692 291.052 32.154 290.854 32.682C290.678 33.188 290.557 33.705 290.491 34.233ZM314.946 44.001V40.536H324.879C325.517 40.536 326.067 40.382 326.529 40.074C327.013 39.766 327.387 39.37 327.651 38.886C327.937 38.38 328.08 37.852 328.08 37.302C328.08 36.708 327.948 36.169 327.684 35.685C327.42 35.201 327.046 34.816 326.562 34.53C326.1 34.244 325.561 34.101 324.945 34.101H320.82C319.522 34.101 318.356 33.837 317.322 33.309C316.31 32.759 315.507 32 314.913 31.032C314.319 30.064 314.022 28.92 314.022 27.6C314.022 26.28 314.308 25.125 314.88 24.135C315.452 23.123 316.233 22.331 317.223 21.759C318.213 21.187 319.335 20.901 320.589 20.901H330.522V24.366H320.952C320.38 24.366 319.863 24.509 319.401 24.795C318.939 25.081 318.576 25.455 318.312 25.917C318.07 26.379 317.949 26.874 317.949 27.402C317.949 27.952 318.07 28.458 318.312 28.92C318.576 29.36 318.928 29.723 319.368 30.009C319.83 30.273 320.347 30.405 320.919 30.405H325.143C326.551 30.405 327.761 30.68 328.773 31.23C329.807 31.78 330.599 32.539 331.149 33.507C331.721 34.475 332.007 35.586 332.007 36.84C332.007 38.314 331.71 39.59 331.116 40.668C330.544 41.724 329.752 42.549 328.74 43.143C327.75 43.715 326.628 44.001 325.374 44.001H314.946ZM343.588 44.397C341.85 44.397 340.31 44.012 338.968 43.242C337.626 42.45 336.559 41.394 335.767 40.074C334.997 38.732 334.612 37.236 334.612 35.586C334.612 33.936 334.997 32.451 335.767 31.131C336.559 29.789 337.626 28.733 338.968 27.963C340.31 27.171 341.85 26.775 343.588 26.775C345.304 26.775 346.833 27.171 348.175 27.963C349.517 28.733 350.573 29.778 351.343 31.098C352.135 32.418 352.531 33.914 352.531 35.586C352.531 37.236 352.135 38.732 351.343 40.074C350.573 41.394 349.517 42.45 348.175 43.242C346.833 44.012 345.304 44.397 343.588 44.397ZM343.588 41.163C344.622 41.163 345.524 40.921 346.294 40.437C347.064 39.931 347.658 39.26 348.076 38.424C348.494 37.588 348.703 36.642 348.703 35.586C348.703 34.552 348.494 33.617 348.076 32.781C347.658 31.923 347.064 31.252 346.294 30.768C345.524 30.262 344.622 30.009 343.588 30.009C342.532 30.009 341.619 30.262 340.849 30.768C340.101 31.252 339.507 31.912 339.067 32.748C338.649 33.584 338.44 34.53 338.44 35.586C338.44 36.62 338.649 37.566 339.067 38.424C339.507 39.26 340.101 39.931 340.849 40.437C341.619 40.921 342.532 41.163 343.588 41.163ZM356.13 44.001V19.911H359.925V44.001H356.13ZM372.528 44.397C370.9 44.397 369.481 44.078 368.271 43.44C367.061 42.78 366.126 41.878 365.466 40.734C364.806 39.59 364.476 38.303 364.476 36.873V27.171H368.271V36.84C368.271 37.698 368.458 38.457 368.832 39.117C369.228 39.755 369.745 40.261 370.383 40.635C371.043 40.987 371.758 41.163 372.528 41.163C373.298 41.163 374.002 40.987 374.64 40.635C375.3 40.261 375.817 39.755 376.191 39.117C376.587 38.457 376.785 37.698 376.785 36.84V27.171H380.58V36.873C380.58 38.303 380.239 39.59 379.557 40.734C378.897 41.878 377.962 42.78 376.752 43.44C375.564 44.078 374.156 44.397 372.528 44.397ZM390.941 44.001C389.445 44.001 388.268 43.572 387.41 42.714C386.574 41.856 386.156 40.69 386.156 39.216V22.947H389.918V39.051C389.918 39.557 390.072 39.975 390.38 40.305C390.688 40.613 391.095 40.767 391.601 40.767H395.132V44.001H390.941ZM383.252 30.405V27.171H395.165V30.405H383.252ZM398.733 44.001V27.171H402.528V44.001H398.733ZM400.614 24.828C399.954 24.828 399.382 24.586 398.898 24.102C398.414 23.618 398.172 23.046 398.172 22.386C398.172 21.726 398.414 21.154 398.898 20.67C399.382 20.186 399.954 19.944 400.614 19.944C401.296 19.944 401.868 20.186 402.33 20.67C402.814 21.154 403.056 21.726 403.056 22.386C403.056 23.046 402.814 23.618 402.33 24.102C401.868 24.586 401.296 24.828 400.614 24.828ZM415.099 44.397C413.361 44.397 411.821 44.012 410.479 43.242C409.137 42.45 408.07 41.394 407.278 40.074C406.508 38.732 406.123 37.236 406.123 35.586C406.123 33.936 406.508 32.451 407.278 31.131C408.07 29.789 409.137 28.733 410.479 27.963C411.821 27.171 413.361 26.775 415.099 26.775C416.815 26.775 418.344 27.171 419.686 27.963C421.028 28.733 422.084 29.778 422.854 31.098C423.646 32.418 424.042 33.914 424.042 35.586C424.042 37.236 423.646 38.732 422.854 40.074C422.084 41.394 421.028 42.45 419.686 43.242C418.344 44.012 416.815 44.397 415.099 44.397ZM415.099 41.163C416.133 41.163 417.035 40.921 417.805 40.437C418.575 39.931 419.169 39.26 419.587 38.424C420.005 37.588 420.214 36.642 420.214 35.586C420.214 34.552 420.005 33.617 419.587 32.781C419.169 31.923 418.575 31.252 417.805 30.768C417.035 30.262 416.133 30.009 415.099 30.009C414.043 30.009 413.13 30.262 412.36 30.768C411.612 31.252 411.018 31.912 410.578 32.748C410.16 33.584 409.951 34.53 409.951 35.586C409.951 36.62 410.16 37.566 410.578 38.424C411.018 39.26 411.612 39.931 412.36 40.437C413.13 40.921 414.043 41.163 415.099 41.163ZM427.64 44.001V34.299C427.64 32.847 427.97 31.56 428.63 30.438C429.29 29.294 430.225 28.403 431.435 27.765C432.645 27.105 434.064 26.775 435.692 26.775C437.32 26.775 438.728 27.105 439.916 27.765C441.126 28.403 442.061 29.294 442.721 30.438C443.381 31.56 443.711 32.847 443.711 34.299V44.001H439.949V34.332C439.949 33.474 439.751 32.726 439.355 32.088C438.959 31.428 438.431 30.922 437.771 30.57C437.133 30.196 436.429 30.009 435.659 30.009C434.911 30.009 434.207 30.196 433.547 30.57C432.909 30.922 432.392 31.428 431.996 32.088C431.622 32.726 431.435 33.474 431.435 34.332V44.001H427.64Z" fill="#5B0BC4"/>
</svg>
