<svg width="1065" height="115" viewBox="0 0 1065 115" fill="none" xmlns="http://www.w3.org/2000/svg">
<path d="M0.4 90V5.99999H35.56C41.08 5.99999 46.08 7.27999 50.56 9.83999C55.12 12.32 58.72 15.8 61.36 20.28C64.08 24.76 65.44 29.96 65.44 35.88C65.44 41.72 64.08 46.92 61.36 51.48C58.72 55.96 55.12 59.48 50.56 62.04C46.08 64.52 41.08 65.76 35.56 65.76H17.56V90H0.4ZM17.56 50.64H33.52C36.24 50.64 38.72 50.08 40.96 48.96C43.2 47.76 44.96 46.08 46.24 43.92C47.6 41.68 48.28 39 48.28 35.88C48.28 32.76 47.6 30.12 46.24 27.96C44.96 25.72 43.2 24.04 40.96 22.92C38.72 21.72 36.24 21.12 33.52 21.12H17.56V50.64ZM76.2063 90V2.4H92.6463V33.12C95.2063 31.04 97.9663 29.56 100.926 28.68C103.886 27.8 106.806 27.36 109.686 27.36C115.606 27.36 120.486 28.6 124.326 31.08C128.246 33.56 131.166 36.88 133.086 41.04C135.006 45.2 135.966 49.8 135.966 54.84V90H119.526V54.84C119.526 52.36 118.926 50.12 117.726 48.12C116.526 46.04 114.886 44.4 112.806 43.2C110.806 42 108.566 41.4 106.086 41.4C103.686 41.4 101.446 42 99.3663 43.2C97.3663 44.32 95.7263 45.88 94.4463 47.88C93.2463 49.8 92.6463 51.96 92.6463 54.36V90H76.2063ZM173.398 114.36V90.6C168.758 89.64 164.798 87.88 161.518 85.32C158.318 82.76 155.838 79.64 154.078 75.96C152.398 72.2 151.558 68.2 151.558 63.96V28.8H167.998V63.96C167.998 66.44 168.598 68.72 169.798 70.8C170.998 72.8 172.598 74.4 174.598 75.6C176.678 76.8 178.958 77.4 181.438 77.4C183.918 77.4 186.158 76.8 188.158 75.6C190.238 74.4 191.878 72.8 193.078 70.8C194.278 68.72 194.878 66.44 194.878 63.96V28.8H211.318V63.96C211.318 68.2 210.478 72.16 208.798 75.84C207.118 79.44 204.678 82.56 201.478 85.2C198.278 87.76 194.398 89.52 189.838 90.48V114.36H173.398ZM227.149 90V75.96H257.029C257.989 75.96 258.829 75.76 259.549 75.36C260.349 74.96 260.949 74.4 261.349 73.68C261.829 72.96 262.069 72.16 262.069 71.28C262.069 70.32 261.829 69.48 261.349 68.76C260.949 68.04 260.349 67.48 259.549 67.08C258.829 66.6 257.989 66.36 257.029 66.36H245.509C241.589 66.36 238.029 65.76 234.829 64.56C231.709 63.28 229.189 61.28 227.269 58.56C225.429 55.76 224.509 52.12 224.509 47.64C224.509 44.2 225.349 41.08 227.029 38.28C228.789 35.4 231.109 33.12 233.989 31.44C236.949 29.68 240.189 28.8 243.709 28.8H272.389V42.84H245.269C244.069 42.84 242.989 43.24 242.029 44.04C241.149 44.84 240.709 45.88 240.709 47.16C240.709 48.44 241.149 49.52 242.029 50.4C242.909 51.2 243.989 51.6 245.269 51.6H256.789C261.189 51.6 264.989 52.28 268.189 53.64C271.389 54.92 273.869 56.96 275.629 59.76C277.389 62.56 278.269 66.24 278.269 70.8C278.269 74.32 277.389 77.56 275.629 80.52C273.869 83.4 271.509 85.72 268.549 87.48C265.589 89.16 262.269 90 258.589 90H227.149ZM291.128 90V28.8H307.688V90H291.128ZM299.408 21.48C296.608 21.48 294.168 20.48 292.088 18.48C290.088 16.4 289.088 13.96 289.088 11.16C289.088 8.36 290.088 5.96 292.088 3.96C294.168 1.88 296.608 0.839996 299.408 0.839996C302.208 0.839996 304.608 1.88 306.608 3.96C308.688 5.96 309.728 8.36 309.728 11.16C309.728 13.96 308.688 16.4 306.608 18.48C304.608 20.48 302.208 21.48 299.408 21.48ZM352.52 90C346.2 90 340.56 88.64 335.6 85.92C330.64 83.2 326.72 79.56 323.84 75C320.96 70.36 319.52 65.16 319.52 59.4C319.52 53.64 320.96 48.48 323.84 43.92C326.72 39.28 330.64 35.6 335.6 32.88C340.56 30.16 346.2 28.8 352.52 28.8H360.2V42.84H352.52C349.16 42.84 346.24 43.56 343.76 45C341.36 46.44 339.48 48.44 338.12 51C336.84 53.48 336.2 56.28 336.2 59.4C336.2 62.52 336.84 65.36 338.12 67.92C339.48 70.4 341.36 72.36 343.76 73.8C346.24 75.24 349.16 75.96 352.52 75.96H360.2V90H352.52ZM395.756 91.44C390.156 91.44 385.276 90 381.116 87.12C376.956 84.24 373.716 80.4 371.396 75.6C369.156 70.72 368.036 65.36 368.036 59.52C368.036 53.52 369.316 48.08 371.876 43.2C374.516 38.32 378.276 34.48 383.156 31.68C388.036 28.8 393.876 27.36 400.676 27.36C407.556 27.36 413.356 28.8 418.076 31.68C422.796 34.56 426.396 38.44 428.876 43.32C431.356 48.2 432.596 53.6 432.596 59.52V90H416.156V79.8H415.916C414.716 81.96 413.196 83.92 411.356 85.68C409.596 87.44 407.436 88.84 404.876 89.88C402.316 90.92 399.276 91.44 395.756 91.44ZM400.436 77.4C403.636 77.4 406.396 76.6 408.716 75C411.036 73.4 412.796 71.24 413.996 68.52C415.276 65.72 415.916 62.64 415.916 59.28C415.916 55.92 415.276 52.92 413.996 50.28C412.796 47.56 411.036 45.4 408.716 43.8C406.396 42.2 403.636 41.4 400.436 41.4C397.156 41.4 394.316 42.2 391.916 43.8C389.596 45.4 387.796 47.56 386.516 50.28C385.316 52.92 384.716 55.92 384.716 59.28C384.716 62.64 385.316 65.72 386.516 68.52C387.796 71.24 389.596 73.4 391.916 75C394.316 76.6 397.156 77.4 400.436 77.4ZM448.159 90V2.4H464.599V90H448.159Z" fill="#5B0BC4"/>
<path d="M509.949 90V83.2H534.189C536.056 83.2 537.656 82.7733 538.989 81.92C540.323 81.0133 541.363 79.8667 542.109 78.48C542.856 77.0933 543.229 75.6267 543.229 74.08C543.229 72.48 542.856 71.0133 542.109 69.68C541.416 68.2933 540.403 67.2 539.069 66.4C537.789 65.5467 536.216 65.12 534.349 65.12H523.789C520.643 65.12 517.869 64.48 515.469 63.2C513.069 61.8667 511.176 60.0533 509.789 57.76C508.456 55.4133 507.789 52.7733 507.789 49.84C507.789 46.8533 508.429 44.16 509.709 41.76C511.043 39.36 512.883 37.4667 515.229 36.08C517.629 34.6933 520.376 34 523.469 34H547.229V40.8H524.189C522.429 40.8 520.883 41.2267 519.549 42.08C518.216 42.88 517.203 43.9467 516.509 45.28C515.816 46.56 515.469 47.9467 515.469 49.44C515.469 50.88 515.789 52.2667 516.429 53.6C517.123 54.88 518.109 55.92 519.389 56.72C520.723 57.52 522.243 57.92 523.949 57.92H534.749C538.109 57.92 540.989 58.5867 543.389 59.92C545.789 61.2533 547.629 63.0667 548.909 65.36C550.189 67.6533 550.829 70.2667 550.829 73.2C550.829 76.4533 550.163 79.36 548.829 81.92C547.549 84.4267 545.709 86.4 543.309 87.84C540.909 89.28 538.163 90 535.069 90H509.949ZM560.106 90V31.6H567.466V54.48C569.119 52.3467 571.119 50.7733 573.466 49.76C575.866 48.7467 578.346 48.24 580.906 48.24C584.532 48.24 587.679 49.0133 590.346 50.56C593.012 52.0533 595.092 54.16 596.586 56.88C598.079 59.6 598.826 62.7733 598.826 66.4V90H591.466V66.48C591.466 64.0267 590.906 61.92 589.786 60.16C588.666 58.3467 587.172 56.96 585.306 56C583.492 55.04 581.546 54.56 579.466 54.56C577.386 54.56 575.439 55.04 573.626 56C571.812 56.9067 570.319 58.24 569.146 60C568.026 61.76 567.466 63.8667 567.466 66.32V90H560.106ZM627.456 90.96C623.51 90.96 620.096 90.0267 617.216 88.16C614.336 86.24 612.123 83.6533 610.576 80.4C609.03 77.1467 608.256 73.5467 608.256 69.6C608.256 65.6 609.11 62 610.816 58.8C612.523 55.5467 614.976 52.9867 618.176 51.12C621.376 49.2 625.216 48.24 629.696 48.24C634.016 48.24 637.723 49.1733 640.816 51.04C643.91 52.9067 646.283 55.44 647.936 58.64C649.643 61.84 650.496 65.4133 650.496 69.36V90H643.056V81.68H642.896C642.096 83.2267 641.003 84.72 639.616 86.16C638.283 87.5467 636.603 88.6933 634.576 89.6C632.55 90.5067 630.176 90.96 627.456 90.96ZM629.376 84.64C632.043 84.64 634.39 84 636.416 82.72C638.496 81.3867 640.096 79.5733 641.216 77.28C642.39 74.9333 642.976 72.32 642.976 69.44C642.976 66.6133 642.416 64.08 641.296 61.84C640.23 59.6 638.683 57.84 636.656 56.56C634.63 55.2267 632.256 54.56 629.536 54.56C626.656 54.56 624.176 55.2267 622.096 56.56C620.07 57.8933 618.496 59.7067 617.376 62C616.31 64.24 615.776 66.8 615.776 69.68C615.776 72.4533 616.31 74.9867 617.376 77.28C618.443 79.52 619.99 81.3067 622.016 82.64C624.043 83.9733 626.496 84.64 629.376 84.64ZM661.975 90V60.8C661.975 57.1733 662.988 54.3467 665.015 52.32C667.095 50.24 669.948 49.2 673.575 49.2H681.975V55.52H674.935C673.175 55.52 671.788 56.0267 670.775 57.04C669.815 58.0533 669.335 59.4667 669.335 61.28V90H661.975ZM709.498 90C705.018 90 701.044 89.1733 697.578 87.52C694.111 85.8133 691.391 83.44 689.418 80.4C687.498 77.3067 686.538 73.7067 686.538 69.6C686.538 65.5467 687.364 61.92 689.018 58.72C690.671 55.4667 692.964 52.9067 695.898 51.04C698.831 49.1733 702.244 48.24 706.138 48.24C710.351 48.24 713.844 49.1467 716.618 50.96C719.444 52.7733 721.551 55.2267 722.938 58.32C724.324 61.36 725.018 64.7733 725.018 68.56C725.018 69.1467 724.991 69.76 724.938 70.4C724.938 71.04 724.884 71.6 724.778 72.08H694.378C694.644 74.5867 695.471 76.72 696.858 78.48C698.244 80.1867 700.004 81.4933 702.138 82.4C704.324 83.2533 706.724 83.68 709.338 83.68H719.978V90H709.498ZM694.298 66.88H717.578C717.578 65.8667 717.471 64.8 717.258 63.68C717.044 62.5067 716.671 61.3867 716.138 60.32C715.604 59.2 714.884 58.2133 713.978 57.36C713.124 56.4533 712.031 55.7333 710.698 55.2C709.418 54.6667 707.898 54.4 706.138 54.4C704.271 54.4 702.618 54.7733 701.178 55.52C699.791 56.2133 698.591 57.1733 697.578 58.4C696.564 59.5733 695.791 60.9067 695.258 62.4C694.724 63.8933 694.404 65.3867 694.298 66.88ZM755.574 90V83.2H779.814C781.681 83.2 783.281 82.7733 784.614 81.92C785.948 81.0133 786.988 79.8667 787.734 78.48C788.481 77.0933 788.854 75.6267 788.854 74.08C788.854 72.48 788.481 71.0133 787.734 69.68C787.041 68.2933 786.028 67.2 784.694 66.4C783.414 65.5467 781.841 65.12 779.974 65.12H769.414C766.268 65.12 763.494 64.48 761.094 63.2C758.694 61.8667 756.801 60.0533 755.414 57.76C754.081 55.4133 753.414 52.7733 753.414 49.84C753.414 46.8533 754.054 44.16 755.334 41.76C756.668 39.36 758.508 37.4667 760.854 36.08C763.254 34.6933 766.001 34 769.094 34H792.854V40.8H769.814C768.054 40.8 766.508 41.2267 765.174 42.08C763.841 42.88 762.828 43.9467 762.134 45.28C761.441 46.56 761.094 47.9467 761.094 49.44C761.094 50.88 761.414 52.2667 762.054 53.6C762.748 54.88 763.734 55.92 765.014 56.72C766.348 57.52 767.868 57.92 769.574 57.92H780.374C783.734 57.92 786.614 58.5867 789.014 59.92C791.414 61.2533 793.254 63.0667 794.534 65.36C795.814 67.6533 796.454 70.2667 796.454 73.2C796.454 76.4533 795.788 79.36 794.454 81.92C793.174 84.4267 791.334 86.4 788.934 87.84C786.534 89.28 783.788 90 780.694 90H755.574ZM824.931 90.96C820.771 90.96 817.091 90.0267 813.891 88.16C810.691 86.24 808.157 83.68 806.291 80.48C804.424 77.2267 803.491 73.6 803.491 69.6C803.491 65.6 804.424 62 806.291 58.8C808.157 55.5467 810.691 52.9867 813.891 51.12C817.091 49.2 820.771 48.24 824.931 48.24C829.091 48.24 832.771 49.2 835.971 51.12C839.224 52.9867 841.757 55.52 843.571 58.72C845.437 61.92 846.371 65.5467 846.371 69.6C846.371 73.6 845.437 77.2267 843.571 80.48C841.757 83.68 839.224 86.24 835.971 88.16C832.771 90.0267 829.091 90.96 824.931 90.96ZM824.931 84.64C827.757 84.64 830.211 83.9733 832.291 82.64C834.371 81.3067 835.997 79.52 837.171 77.28C838.344 74.9867 838.931 72.4267 838.931 69.6C838.931 66.7733 838.344 64.24 837.171 62C835.997 59.7067 834.371 57.8933 832.291 56.56C830.211 55.2267 827.757 54.56 824.931 54.56C822.157 54.56 819.704 55.2267 817.571 56.56C815.491 57.8933 813.864 59.7067 812.691 62C811.517 64.24 810.931 66.7733 810.931 69.6C810.931 72.4267 811.517 74.9867 812.691 77.28C813.864 79.52 815.491 81.3067 817.571 82.64C819.704 83.9733 822.157 84.64 824.931 84.64ZM855.809 90V31.6H863.169V90H855.809ZM893.991 90.96C890.311 90.96 887.005 90.2133 884.071 88.72C881.191 87.1733 878.925 85.04 877.271 82.32C875.671 79.6 874.871 76.4267 874.871 72.8V49.2H882.311V72.72C882.311 75.1733 882.845 77.3067 883.911 79.12C884.978 80.88 886.391 82.24 888.151 83.2C889.965 84.16 891.885 84.64 893.911 84.64C895.991 84.64 897.911 84.16 899.671 83.2C901.485 82.24 902.925 80.88 903.991 79.12C905.111 77.3067 905.671 75.1733 905.671 72.72V49.2H913.111V72.8C913.111 76.4267 912.285 79.6 910.631 82.32C908.978 85.04 906.711 87.1733 903.831 88.72C900.951 90.2133 897.671 90.96 893.991 90.96ZM938.713 90C935.086 90 932.233 88.96 930.153 86.88C928.126 84.8 927.113 81.9733 927.113 78.4V38.96H934.473V77.92C934.473 79.68 934.953 81.0933 935.913 82.16C936.926 83.1733 938.313 83.68 940.073 83.68H948.313V90H938.713ZM920.073 55.52V49.2H948.473V55.52H920.073ZM957.371 90V49.2H964.811V90H957.371ZM961.131 42.72C959.798 42.72 958.625 42.24 957.611 41.28C956.651 40.2667 956.171 39.0933 956.171 37.76C956.171 36.4267 956.651 35.28 957.611 34.32C958.625 33.3067 959.798 32.8 961.131 32.8C962.465 32.8 963.611 33.3067 964.571 34.32C965.585 35.28 966.091 36.4267 966.091 37.76C966.091 39.0933 965.585 40.2667 964.571 41.28C963.611 42.24 962.465 42.72 961.131 42.72ZM995.634 90.96C991.474 90.96 987.794 90.0267 984.594 88.16C981.394 86.24 978.86 83.68 976.994 80.48C975.127 77.2267 974.194 73.6 974.194 69.6C974.194 65.6 975.127 62 976.994 58.8C978.86 55.5467 981.394 52.9867 984.594 51.12C987.794 49.2 991.474 48.24 995.634 48.24C999.794 48.24 1003.47 49.2 1006.67 51.12C1009.93 52.9867 1012.46 55.52 1014.27 58.72C1016.14 61.92 1017.07 65.5467 1017.07 69.6C1017.07 73.6 1016.14 77.2267 1014.27 80.48C1012.46 83.68 1009.93 86.24 1006.67 88.16C1003.47 90.0267 999.794 90.96 995.634 90.96ZM995.634 84.64C998.46 84.64 1000.91 83.9733 1002.99 82.64C1005.07 81.3067 1006.7 79.52 1007.87 77.28C1009.05 74.9867 1009.63 72.4267 1009.63 69.6C1009.63 66.7733 1009.05 64.24 1007.87 62C1006.7 59.7067 1005.07 57.8933 1002.99 56.56C1000.91 55.2267 998.46 54.56 995.634 54.56C992.86 54.56 990.407 55.2267 988.274 56.56C986.194 57.8933 984.567 59.7067 983.394 62C982.22 64.24 981.634 66.7733 981.634 69.6C981.634 72.4267 982.22 74.9867 983.394 77.28C984.567 79.52 986.194 81.3067 988.274 82.64C990.407 83.9733 992.86 84.64 995.634 84.64ZM1026.51 90V66.4C1026.51 62.7733 1027.31 59.6 1028.91 56.88C1030.57 54.16 1032.83 52.0533 1035.71 50.56C1038.59 49.0133 1041.87 48.24 1045.55 48.24C1049.29 48.24 1052.57 49.0133 1055.39 50.56C1058.27 52.0533 1060.51 54.16 1062.11 56.88C1063.77 59.6 1064.59 62.7733 1064.59 66.4V90H1057.23V66.48C1057.23 64.0267 1056.67 61.92 1055.55 60.16C1054.49 58.3467 1053.05 56.96 1051.23 56C1049.47 55.04 1047.58 54.56 1045.55 54.56C1043.53 54.56 1041.61 55.04 1039.79 56C1038.03 56.96 1036.59 58.3467 1035.47 60.16C1034.41 61.92 1033.87 64.0267 1033.87 66.48V90H1026.51Z" fill="black"/>
</svg>
